<svg width="64" height="64" viewBox="0 0 64 64" fill="none" xmlns="http://www.w3.org/2000/svg">
  <defs>
    <radialGradient id="portal_glow" cx="0" cy="0" r="1" gradientUnits="userSpaceOnUse" gradientTransform="translate(32 32) rotate(90) scale(32)">
      <stop offset="0.3" stop-color="#000000"/>
      <stop offset="0.7" stop-color="#00C1FF"/>
      <stop offset="1" stop-color="#5B57FF"/>
    </radialGradient>
    <filter id="glow_blur" x="-50%" y="-50%" width="200%" height="200%">
      <feGaussianBlur in="SourceGraphic" stdDeviation="2" />
    </filter>
  </defs>
  
  <!-- Background/Base -->
  <circle cx="32" cy="32" r="30" fill="#0D0D0D"/>
  
  <!-- Swirling Portal Rings -->
  <path d="M32 6C17.64 6 6 17.64 6 32C6 46.36 17.64 58 32 58C46.36 58 58 46.36 58 32C58 17.64 46.36 6 32 6ZM32 54C19.85 54 10 44.15 10 32C10 19.85 19.85 10 32 10C44.15 10 54 19.85 54 32C54 44.15 44.15 54 32 54Z" fill="url(#portal_glow)" opacity="0.3"/>
  
  <!-- Dynamic Swirls -->
  <path d="M32 10C26 10 20 12 16 16L20 20C23 17 27 15 32 15V10Z" fill="#00C1FF"/>
  <path d="M54 32C54 38 52 44 48 48L44 44C47 41 49 37 49 32H54Z" fill="#5B57FF"/>
  <path d="M32 54C38 54 44 52 48 48L44 44C41 47 37 49 32 49V54Z" fill="#00C1FF"/>
  <path d="M10 32C10 26 12 20 16 16L20 20C17 23 15 27 15 32H10Z" fill="#5B57FF"/>

  <!-- Inner Swirl Details -->
  <circle cx="32" cy="32" r="12" stroke="#00C1FF" stroke-width="2" stroke-dasharray="4 4" opacity="0.8">
    <animateTransform attributeName="transform" type="rotate" from="0 32 32" to="360 32 32" dur="10s" repeatCount="indefinite"/>
  </circle>

  <!-- Core -->
  <circle cx="32" cy="32" r="6" fill="#FFFFFF" filter="url(#glow_blur)"/>
  <circle cx="32" cy="32" r="4" fill="#00C1FF"/>

</svg>
